<svg version="1.1" preserveAspectRatio="none" xmlns="http://www.w3.org/2000/svg" width="500" height="500" viewBox="0 0 500 500"><rect width="100%" height="100%" fill="#101010" fill-opacity="1"/><svg viewBox="217.7307 257.9263 509.1646 119.8795" width="333" height="78.40268844299072" x="83.5px" y="210.7987px" xmlns="http://www.w3.org/2000/svg" xmlns:xlink="http://www.w3.org/1999/xlink" preserveAspectRatio="none"><defs></defs><style>.icon1 {fill:#EBEBEB;fill-opacity:1;}.icon2 {fill:#D4D4D4;fill-opacity:1;}.icon3 {fill:#A0A0A0;fill-opacity:1;}.icon3-str {stroke:#A0A0A0;stroke-opacity:1;}</style><g opacity="1" transform="rotate(0 311.4302 359.8058)">
<svg width="321.7656" height="18" x="311.4302" y="359.8058" version="1.1" preserveAspectRatio="none" viewBox="2.48 -35.76 644.9599999999999 36.08">
  <g transform="matrix(1 0 0 1 0 0)" class="icon3"><path id="id-6izo4zJp25" d="M2.88 0Q2.48 0 2.48-0.40L2.48-0.40L2.48-27.60Q2.48-28 2.88-28L2.88-28L5.92-28Q6.32-28 6.32-27.60L6.32-27.60L6.32-0.40Q6.32 0 5.92 0L5.92 0L2.88 0Z M21.72 0Q21.32 0 21.32-0.40L21.32-0.40L21.32-27.60Q21.32-28 21.72-28L21.72-28L24.80-28Q25.12-28 25.24-27.68L25.24-27.68L32.36-10.04Q32.40-9.92 32.48-9.94Q32.56-9.96 32.56-10.08L32.56-10.08L32.56-27.60Q32.56-28 32.96-28L32.96-28L35.96-28Q36.36-28 36.36-27.60L36.36-27.60L36.36-0.40Q36.36 0 35.96 0L35.96 0L32.84 0Q32.52 0 32.40-0.32L32.40-0.32L25.28-17.96Q25.24-18.08 25.16-18.08Q25.08-18.08 25.08-17.96L25.08-17.96L25.12-0.40Q25.12 0 24.72 0L24.72 0L21.72 0Z M64.68-25.08Q64.68-24.68 64.28-24.68L64.28-24.68L55.32-24.68Q55.16-24.68 55.16-24.52L55.16-24.52L55.16-15.84Q55.16-15.68 55.32-15.68L55.32-15.68L60.80-15.68Q61.20-15.68 61.20-15.28L61.20-15.28L61.20-12.76Q61.20-12.36 60.80-12.36L60.80-12.36L55.32-12.36Q55.16-12.36 55.16-12.20L55.16-12.20L55.16-0.40Q55.16 0 54.76 0L54.76 0L51.72 0Q51.32 0 51.32-0.40L51.32-0.40L51.32-27.60Q51.32-28 51.72-28L51.72-28L64.28-28Q64.68-28 64.68-27.60L64.68-27.60L64.68-25.08Z M84.44 0.32Q81.16 0.32 79.16-1.68Q77.16-3.68 77.16-7L77.16-7L77.16-20.96Q77.16-24.28 79.16-26.30Q81.16-28.32 84.44-28.32L84.44-28.32Q87.76-28.32 89.78-26.30Q91.80-24.28 91.80-20.96L91.80-20.96L91.80-7Q91.80-3.68 89.78-1.68Q87.76 0.32 84.44 0.32L84.44 0.32ZM84.44-3Q86.04-3 87.00-4.06Q87.96-5.12 87.96-6.84L87.96-6.84L87.96-21.16Q87.96-22.88 87.00-23.94Q86.04-25 84.44-25L84.44-25Q82.88-25 81.94-23.94Q81.00-22.88 81.00-21.16L81.00-21.16L81.00-6.84Q81.00-5.12 81.94-4.06Q82.88-3 84.44-3L84.44-3Z M117.32 0Q116.96 0 116.84-0.32L116.84-0.32L113.12-12.32Q113.08-12.44 112.96-12.44L112.96-12.44L110.20-12.44Q110.04-12.44 110.04-12.28L110.04-12.28L110.04-0.40Q110.04 0 109.64 0L109.64 0L106.60 0Q106.20 0 106.20-0.40L106.20-0.40L106.20-27.64Q106.20-28.04 106.60-28.04L106.60-28.04L113.76-28.04Q115.80-28.04 117.36-27.04Q118.92-26.04 119.78-24.22Q120.64-22.40 120.64-20.08L120.64-20.08Q120.64-17.56 119.58-15.70Q118.52-13.84 116.72-13.04L116.72-13.04Q116.60-12.92 116.64-12.80L116.64-12.80L120.76-0.44L120.80-0.28Q120.80 0 120.44 0L120.44 0L117.32 0ZM110.20-24.72Q110.04-24.72 110.04-24.56L110.04-24.56L110.04-15.60Q110.04-15.44 110.20-15.44L110.20-15.44L113.16-15.44Q114.80-15.44 115.80-16.70Q116.80-17.96 116.80-20.04L116.80-20.04Q116.80-22.20 115.80-23.46Q114.80-24.72 113.16-24.72L113.16-24.72L110.20-24.72Z M134.68 0Q134.28 0 134.28-0.40L134.28-0.40L134.28-27.60Q134.28-28 134.68-28L134.68-28L137.72-28Q138.04-28 138.16-27.68L138.16-27.68L142.24-17.96Q142.28-17.88 142.36-17.88Q142.44-17.88 142.48-17.96L142.48-17.96L146.64-27.68Q146.76-28 147.08-28L147.08-28L150.12-28Q150.52-28 150.52-27.60L150.52-27.60L150.52-0.40Q150.52 0 150.12 0L150.12 0L147.08 0Q146.68 0 146.68-0.40L146.68-0.40L146.68-18.52Q146.68-18.64 146.62-18.64Q146.56-18.64 146.48-18.56L146.48-18.56L142.76-10.64Q142.64-10.36 142.44-10.36L142.44-10.36Q142.16-10.36 142.04-10.64L142.04-10.64L138.32-18.60Q138.24-18.68 138.18-18.68Q138.12-18.68 138.12-18.56L138.12-18.56L138.12-0.40Q138.12 0 137.72 0L137.72 0L134.68 0Z M177.56 0Q177.20 0 177.12-0.36L177.12-0.36L176.24-4.96Q176.24-5.04 176.18-5.08Q176.12-5.12 176.04-5.12L176.04-5.12L169.60-5.12Q169.52-5.12 169.46-5.08Q169.40-5.04 169.40-4.96L169.40-4.96L168.48-0.36Q168.44 0 168.04 0L168.04 0L165.00 0Q164.80 0 164.70-0.12Q164.60-0.24 164.64-0.44L164.64-0.44L170.60-27.64Q170.68-28 171.04-28L171.04-28L174.56-28Q174.96-28 175.00-27.64L175.00-27.64L181.04-0.44L181.04-0.36Q181.04 0 180.68 0L180.68 0L177.56 0ZM170.08-8.32Q170.08-8.16 170.20-8.16L170.20-8.16L175.48-8.16Q175.60-8.16 175.60-8.32L175.60-8.32L172.96-22Q172.92-22.12 172.88-22.12Q172.84-22.12 172.80-22L172.80-22L170.08-8.32ZM170.96-30.68Q170.72-30.68 170.64-30.82Q170.56-30.96 170.68-31.16L170.68-31.16L173.16-35.48Q173.36-35.76 173.64-35.76L173.64-35.76L176.40-35.76Q176.64-35.76 176.72-35.62Q176.80-35.48 176.68-35.28L176.68-35.28L173.76-30.92Q173.60-30.68 173.28-30.68L173.28-30.68L170.96-30.68Z M205.80-28Q206.20-28 206.20-27.60L206.20-27.60L206.20-25.08Q206.20-24.68 205.80-24.68L205.80-24.68L200.56-24.68Q200.40-24.68 200.40-24.52L200.40-24.52L200.40-0.40Q200.40 0 200.00 0L200.00 0L196.96 0Q196.56 0 196.56-0.40L196.56-0.40L196.56-24.52Q196.56-24.68 196.40-24.68L196.40-24.68L191.44-24.68Q191.04-24.68 191.04-25.08L191.04-25.08L191.04-27.60Q191.04-28 191.44-28L191.44-28L205.80-28Z M220.28 0Q219.88 0 219.88-0.40L219.88-0.40L219.88-27.60Q219.88-28 220.28-28L220.28-28L223.32-28Q223.72-28 223.72-27.60L223.72-27.60L223.72-0.40Q223.72 0 223.32 0L223.32 0L220.28 0Z M245.32 0.32Q242.08 0.32 240.10-1.66Q238.12-3.64 238.12-6.92L238.12-6.92L238.12-21.12Q238.12-24.40 240.10-26.36Q242.08-28.32 245.32-28.32L245.32-28.32Q248.60-28.32 250.58-26.36Q252.56-24.40 252.56-21.12L252.56-21.12L252.56-20.48Q252.56-20.08 252.16-20.08L252.16-20.08L249.12-19.92Q248.72-19.92 248.72-20.32L248.72-20.32L248.72-21.36Q248.72-23 247.78-24Q246.84-25 245.32-25L245.32-25Q243.80-25 242.88-24Q241.96-23 241.96-21.36L241.96-21.36L241.96-6.64Q241.96-5 242.88-4Q243.80-3 245.32-3L245.32-3Q246.84-3 247.78-4Q248.72-5 248.72-6.64L248.72-6.64L248.72-7.68Q248.72-8.08 249.12-8.08L249.12-8.08L252.16-7.92Q252.56-7.92 252.56-7.52L252.56-7.52L252.56-6.92Q252.56-3.64 250.58-1.66Q248.60 0.32 245.32 0.32L245.32 0.32Z M278.20 0Q277.84 0 277.76-0.36L277.76-0.36L276.88-4.96Q276.88-5.04 276.82-5.08Q276.76-5.12 276.68-5.12L276.68-5.12L270.24-5.12Q270.16-5.12 270.10-5.08Q270.04-5.04 270.04-4.96L270.04-4.96L269.12-0.36Q269.08 0 268.68 0L268.68 0L265.64 0Q265.44 0 265.34-0.12Q265.24-0.24 265.28-0.44L265.28-0.44L271.24-27.64Q271.32-28 271.68-28L271.68-28L275.20-28Q275.60-28 275.64-27.64L275.64-27.64L281.68-0.44L281.68-0.36Q281.68 0 281.32 0L281.32 0L278.20 0ZM270.72-8.32Q270.72-8.16 270.84-8.16L270.84-8.16L276.12-8.16Q276.24-8.16 276.24-8.32L276.24-8.32L273.60-22Q273.56-22.12 273.52-22.12Q273.48-22.12 273.44-22L273.44-22L270.72-8.32Z M320.88-28.04Q323.96-28.04 325.86-25.82Q327.76-23.60 327.76-20L327.76-20Q327.76-16.48 325.92-14.32Q324.08-12.16 321.08-12.16L321.08-12.16L317.32-12.16Q317.16-12.16 317.16-12L317.16-12L317.16-0.40Q317.16 0 316.76 0L316.76 0L313.72 0Q313.32 0 313.32-0.40L313.32-0.40L313.32-27.64Q313.32-28.04 313.72-28.04L313.72-28.04L320.88-28.04ZM320.28-15.24Q321.92-15.24 322.92-16.50Q323.92-17.76 323.92-19.92L323.92-19.92Q323.92-22.12 322.92-23.42Q321.92-24.72 320.28-24.72L320.28-24.72L317.32-24.72Q317.16-24.72 317.16-24.56L317.16-24.56L317.16-15.40Q317.16-15.24 317.32-15.24L317.32-15.24L320.28-15.24Z M351.92 0Q351.56 0 351.48-0.36L351.48-0.36L350.60-4.96Q350.60-5.04 350.54-5.08Q350.48-5.12 350.40-5.12L350.40-5.12L343.96-5.12Q343.88-5.12 343.82-5.08Q343.76-5.04 343.76-4.96L343.76-4.96L342.84-0.36Q342.80 0 342.40 0L342.40 0L339.36 0Q339.16 0 339.06-0.12Q338.96-0.24 339.00-0.44L339.00-0.44L344.96-27.64Q345.04-28 345.40-28L345.40-28L348.92-28Q349.32-28 349.36-27.64L349.36-27.64L355.40-0.44L355.40-0.36Q355.40 0 355.04 0L355.04 0L351.92 0ZM344.44-8.32Q344.44-8.16 344.56-8.16L344.56-8.16L349.84-8.16Q349.96-8.16 349.96-8.32L349.96-8.32L347.32-22Q347.28-22.12 347.24-22.12Q347.20-22.12 347.16-22L347.16-22L344.44-8.32Z M380.20 0Q379.84 0 379.72-0.32L379.72-0.32L376-12.32Q375.96-12.44 375.84-12.44L375.84-12.44L373.08-12.44Q372.92-12.44 372.92-12.28L372.92-12.28L372.92-0.40Q372.92 0 372.52 0L372.52 0L369.48 0Q369.08 0 369.08-0.40L369.08-0.40L369.08-27.64Q369.08-28.04 369.48-28.04L369.48-28.04L376.64-28.04Q378.68-28.04 380.24-27.04Q381.80-26.04 382.66-24.22Q383.52-22.40 383.52-20.08L383.52-20.08Q383.52-17.56 382.46-15.70Q381.40-13.84 379.60-13.04L379.60-13.04Q379.48-12.92 379.52-12.80L379.52-12.80L383.64-0.44L383.68-0.28Q383.68 0 383.32 0L383.32 0L380.20 0ZM373.08-24.72Q372.92-24.72 372.92-24.56L372.92-24.56L372.92-15.60Q372.92-15.44 373.08-15.44L373.08-15.44L376.04-15.44Q377.68-15.44 378.68-16.70Q379.68-17.96 379.68-20.04L379.68-20.04Q379.68-22.20 378.68-23.46Q377.68-24.72 376.04-24.72L376.04-24.72L373.08-24.72Z M409.28 0Q408.92 0 408.84-0.36L408.84-0.36L407.96-4.96Q407.96-5.04 407.90-5.08Q407.84-5.12 407.76-5.12L407.76-5.12L401.32-5.12Q401.24-5.12 401.18-5.08Q401.12-5.04 401.12-4.96L401.12-4.96L400.20-0.36Q400.16 0 399.76 0L399.76 0L396.72 0Q396.52 0 396.42-0.12Q396.32-0.24 396.36-0.44L396.36-0.44L402.32-27.64Q402.40-28 402.76-28L402.76-28L406.28-28Q406.68-28 406.72-27.64L406.72-27.64L412.76-0.44L412.76-0.36Q412.76 0 412.40 0L412.40 0L409.28 0ZM401.80-8.32Q401.80-8.16 401.92-8.16L401.92-8.16L407.20-8.16Q407.32-8.16 407.32-8.32L407.32-8.32L404.68-22Q404.64-22.12 404.60-22.12Q404.56-22.12 404.52-22L404.52-22L401.80-8.32Z M444.84 0Q444.44 0 444.44-0.40L444.44-0.40L444.44-27.60Q444.44-28 444.84-28L444.84-28L447.88-28Q448.28-28 448.28-27.60L448.28-27.60L448.28-0.40Q448.28 0 447.88 0L447.88 0L444.84 0Z M463.68 0Q463.28 0 463.28-0.40L463.28-0.40L463.28-27.60Q463.28-28 463.68-28L463.68-28L466.76-28Q467.08-28 467.20-27.68L467.20-27.68L474.32-10.04Q474.36-9.92 474.44-9.94Q474.52-9.96 474.52-10.08L474.52-10.08L474.52-27.60Q474.52-28 474.92-28L474.92-28L477.92-28Q478.32-28 478.32-27.60L478.32-27.60L478.32-0.40Q478.32 0 477.92 0L477.92 0L474.80 0Q474.48 0 474.36-0.32L474.36-0.32L467.24-17.96Q467.20-18.08 467.12-18.08Q467.04-18.08 467.04-17.96L467.04-17.96L467.08-0.40Q467.08 0 466.68 0L466.68 0L463.68 0Z M506.76-28Q507.16-28 507.16-27.60L507.16-27.60L507.16-25.08Q507.16-24.68 506.76-24.68L506.76-24.68L501.52-24.68Q501.36-24.68 501.36-24.52L501.36-24.52L501.36-0.40Q501.36 0 500.96 0L500.96 0L497.92 0Q497.52 0 497.52-0.40L497.52-0.40L497.52-24.52Q497.52-24.68 497.36-24.68L497.36-24.68L492.40-24.68Q492-24.68 492-25.08L492-25.08L492-27.60Q492-28 492.40-28L492.40-28L506.76-28Z M534.24-25.08Q534.24-24.68 533.84-24.68L533.84-24.68L524.84-24.68Q524.68-24.68 524.68-24.52L524.68-24.52L524.68-15.84Q524.68-15.68 524.84-15.68L524.84-15.68L530.36-15.68Q530.76-15.68 530.76-15.28L530.76-15.28L530.76-12.76Q530.76-12.36 530.36-12.36L530.36-12.36L524.84-12.36Q524.68-12.36 524.68-12.20L524.68-12.20L524.68-3.48Q524.68-3.32 524.84-3.32L524.84-3.32L533.84-3.32Q534.24-3.32 534.24-2.92L534.24-2.92L534.24-0.40Q534.24 0 533.84 0L533.84 0L521.24 0Q520.84 0 520.84-0.40L520.84-0.40L520.84-27.60Q520.84-28 521.24-28L521.24-28L533.84-28Q534.24-28 534.24-27.60L534.24-27.60L534.24-25.08Z M559.24 0Q558.88 0 558.76-0.32L558.76-0.32L555.04-12.32Q555-12.44 554.88-12.44L554.88-12.44L552.12-12.44Q551.96-12.44 551.96-12.28L551.96-12.28L551.96-0.40Q551.96 0 551.56 0L551.56 0L548.52 0Q548.12 0 548.12-0.40L548.12-0.40L548.12-27.64Q548.12-28.04 548.52-28.04L548.52-28.04L555.68-28.04Q557.72-28.04 559.28-27.04Q560.84-26.04 561.70-24.22Q562.56-22.40 562.56-20.08L562.56-20.08Q562.56-17.56 561.50-15.70Q560.44-13.84 558.64-13.04L558.64-13.04Q558.52-12.92 558.56-12.80L558.56-12.80L562.68-0.44L562.72-0.28Q562.72 0 562.36 0L562.36 0L559.24 0ZM552.12-24.72Q551.96-24.72 551.96-24.56L551.96-24.56L551.96-15.60Q551.96-15.44 552.12-15.44L552.12-15.44L555.08-15.44Q556.72-15.44 557.72-16.70Q558.72-17.96 558.72-20.04L558.72-20.04Q558.72-22.20 557.72-23.46Q556.72-24.72 555.08-24.72L555.08-24.72L552.12-24.72Z M576.68 0Q576.28 0 576.28-0.40L576.28-0.40L576.28-27.60Q576.28-28 576.68-28L576.68-28L579.76-28Q580.08-28 580.20-27.68L580.20-27.68L587.32-10.04Q587.36-9.92 587.44-9.94Q587.52-9.96 587.52-10.08L587.52-10.08L587.52-27.60Q587.52-28 587.92-28L587.92-28L590.92-28Q591.32-28 591.32-27.60L591.32-27.60L591.32-0.40Q591.32 0 590.92 0L590.92 0L587.80 0Q587.48 0 587.36-0.32L587.36-0.32L580.24-17.96Q580.20-18.08 580.12-18.08Q580.04-18.08 580.04-17.96L580.04-17.96L580.08-0.40Q580.08 0 579.68 0L579.68 0L576.68 0Z M619.68-25.08Q619.68-24.68 619.28-24.68L619.28-24.68L610.28-24.68Q610.12-24.68 610.12-24.52L610.12-24.52L610.12-15.84Q610.12-15.68 610.28-15.68L610.28-15.68L615.80-15.68Q616.20-15.68 616.20-15.28L616.20-15.28L616.20-12.76Q616.20-12.36 615.80-12.36L615.80-12.36L610.28-12.36Q610.12-12.36 610.12-12.20L610.12-12.20L610.12-3.48Q610.12-3.32 610.28-3.32L610.28-3.32L619.28-3.32Q619.68-3.32 619.68-2.92L619.68-2.92L619.68-0.40Q619.68 0 619.28 0L619.28 0L606.68 0Q606.28 0 606.28-0.40L606.28-0.40L606.28-27.60Q606.28-28 606.68-28L606.68-28L619.28-28Q619.68-28 619.68-27.60L619.68-27.60L619.68-25.08Z M647.04-28Q647.44-28 647.44-27.60L647.44-27.60L647.44-25.08Q647.44-24.68 647.04-24.68L647.04-24.68L641.80-24.68Q641.64-24.68 641.64-24.52L641.64-24.52L641.64-0.40Q641.64 0 641.24 0L641.24 0L638.20 0Q637.80 0 637.80-0.40L637.80-0.40L637.80-24.52Q637.80-24.68 637.64-24.68L637.64-24.68L632.68-24.68Q632.28-24.68 632.28-25.08L632.28-25.08L632.28-27.60Q632.28-28 632.68-28L632.68-28L647.04-28Z"/></g>
</svg>
</g><g opacity="1" transform="rotate(0 313.698 257.9263)">
<svg width="54" height="63.759" x="313.698" y="257.9263" version="1.1" preserveAspectRatio="none" viewBox="32.458580017089844 19.999998092651367 135.3414306640625 159.79998779296875">
  <g transform="matrix(-1 0 0 1 200.2585906982422 0)"><g><path d="M167.5 109.2v-.5l-40.6-70c-.2-.3-.5-.5-.8-.5H94L75.4 20.3s-.1 0-.1-.1l-.1-.1c-.1 0-.2-.1-.3-.1h-.5c-.1 0-.1 0-.2.1L44.4 38.3c-.1.1-.2.1-.2.2-.2.2-.2.3-.2.4L32.5 89.7v.4c-.1.2 0 .5.1.7l41.2 70.4c0 .1.1.1.1.2.1.1.3.2.4.2H110l15.3 17.9c.1.1.2.2.3.2h.1c.1 0 .2.1.4.1h.3c.1 0 .1 0 .2-.1h.1l29.8-18.2.1-.1c.1 0 .1-.1.2-.1l.1-.1c0-.1.1-.1.1-.2v-.1l10.8-51.8c-.3.2-.3.2-.3.1zM155 159.9h-16.8l26.2-45.2-9.4 45.2zm-2.6 1.9l-23.7 14.4 8.4-14.4h15.3zM99 146.2L36.2 91l126.7 18.5L99 146.2zm-24 13.4L36.6 93.9l60.6 53.3L75 159.6zm-29.5-119l12.2 7L35.6 85l9.9-44.4zM60.4 47l4.1-6.9h28.8l67.5 64.8L60.4 47zm100.8 60.3L35.5 88.9l23.9-40.3 101.8 58.7zM58.7 46l-10.2-5.9h13.7L58.7 46zm-10.4-7.8l23.6-14.4-8.5 14.4H48.3zm116.1 72.7l-28.4 49h-25.1l-10.5-12.3 64-36.7zm-39-70.8l36.9 63.6L96 40.1h29.4zm-59.8-1.9l9.3-15.7 16.4 15.7H65.6zm12.8 121.7l20.3-11.3 9.7 11.3h-30zm56.5 1.9l-9 15.6-13.3-15.6h22.3z" data-color="1" class="icon1"></path></g></g>
</svg>
</g><g opacity="1" transform="rotate(0 217.7307 259.8058)">
<svg width="75.9673" height="60" x="217.7307" y="259.8058" version="1.1" preserveAspectRatio="none" viewBox="2.16 -28 35.44 28">
  <g transform="matrix(1 0 0 1 0 0)" class="icon1"><path id="id-D6z1nYkh2" d="M17.40-7.68Q17.40-4 15.26-2Q13.12 0 9.68 0L9.68 0L2.64 0Q2.44 0 2.30-0.14Q2.16-0.28 2.16-0.48L2.16-0.48L2.16-27.52Q2.16-27.72 2.30-27.86Q2.44-28 2.64-28L2.64-28L8.96-28Q12.76-28 14.92-26.08Q17.08-24.16 17.08-20.48L17.08-20.48Q17.08-16.36 14.16-14.60L14.16-14.60Q13.96-14.48 14.08-14.36L14.08-14.36Q15.64-13.36 16.52-11.68Q17.40-10 17.40-7.68L17.40-7.68ZM7-24Q6.80-24 6.80-23.80L6.80-23.80L6.80-16.36Q6.80-16.16 7-16.16L7-16.16L9.04-16.16Q10.68-16.16 11.60-17.16Q12.52-18.16 12.52-20L12.52-20Q12.52-21.92 11.60-22.96Q10.68-24 9.04-24L9.04-24L7-24ZM9.32-4.04Q10.92-4.04 11.84-5.16Q12.76-6.28 12.76-8.32L12.76-8.32Q12.76-10.40 11.84-11.58Q10.92-12.76 9.32-12.76L9.32-12.76L7-12.76Q6.80-12.76 6.80-12.56L6.80-12.56L6.80-4.24Q6.80-4.04 7-4.04L7-4.04L9.32-4.04Z M37.60-24.48Q37.60-24.28 37.46-24.14Q37.32-24 37.12-24L37.12-24L28.52-24Q28.32-24 28.32-23.80L28.32-23.80L28.32-16.24Q28.32-16.04 28.52-16.04L28.52-16.04L33.60-16.04Q33.80-16.04 33.94-15.90Q34.08-15.76 34.08-15.56L34.08-15.56L34.08-12.48Q34.08-12.28 33.94-12.14Q33.80-12 33.60-12L33.60-12L28.52-12Q28.32-12 28.32-11.80L28.32-11.80L28.32-0.48Q28.32-0.28 28.18-0.14Q28.04 0 27.84 0L27.84 0L24.16 0Q23.96 0 23.82-0.14Q23.68-0.28 23.68-0.48L23.68-0.48L23.68-27.52Q23.68-27.72 23.82-27.86Q23.96-28 24.16-28L24.16-28L37.12-28Q37.32-28 37.46-27.86Q37.60-27.72 37.60-27.52L37.60-27.52L37.60-24.48Z"/></g>
</svg>
</g><g opacity="1" transform="rotate(0 387.698 259.8058)">
<svg width="339.1973" height="60" x="387.698" y="259.8058" version="1.1" preserveAspectRatio="none" viewBox="2.16 -35.56 202.84 35.88">
  <g transform="matrix(1 0 0 1 0 0)" class="icon1"><path id="id-a8WAvAAzme11" d="M2.64 0Q2.44 0 2.30-0.14Q2.16-0.28 2.16-0.48L2.16-0.48L2.16-27.52Q2.16-27.72 2.30-27.86Q2.44-28 2.64-28L2.64-28L6.32-28Q6.52-28 6.66-27.86Q6.80-27.72 6.80-27.52L6.80-27.52L6.80-0.48Q6.80-0.28 6.66-0.14Q6.52 0 6.32 0L6.32 0L2.64 0Z M13.64 0Q13.44 0 13.30-0.14Q13.16-0.28 13.16-0.48L13.16-0.48L13.16-27.52Q13.16-27.72 13.30-27.86Q13.44-28 13.64-28L13.64-28L17.48-28Q17.92-28 18.04-27.64L18.04-27.64L24.24-11.36Q24.32-11.24 24.40-11.24Q24.48-11.24 24.48-11.40L24.48-11.40L24.48-27.52Q24.48-27.72 24.62-27.86Q24.76-28 24.96-28L24.96-28L28.60-28Q28.80-28 28.94-27.86Q29.08-27.72 29.08-27.52L29.08-27.52L29.08-0.48Q29.08-0.28 28.94-0.14Q28.80 0 28.60 0L28.60 0L24.72 0Q24.28 0 24.16-0.36L24.16-0.36L17.92-16.68Q17.88-16.80 17.78-16.78Q17.68-16.76 17.68-16.64L17.68-16.64L17.72-0.48Q17.72-0.28 17.58-0.14Q17.44 0 17.24 0L17.24 0L13.64 0Z M49.32-24.48Q49.32-24.28 49.18-24.14Q49.04-24 48.84-24L48.84-24L40.24-24Q40.04-24 40.04-23.80L40.04-23.80L40.04-16.24Q40.04-16.04 40.24-16.04L40.24-16.04L45.32-16.04Q45.52-16.04 45.66-15.90Q45.80-15.76 45.80-15.56L45.80-15.56L45.80-12.48Q45.80-12.28 45.66-12.14Q45.52-12 45.32-12L45.32-12L40.24-12Q40.04-12 40.04-11.80L40.04-11.80L40.04-0.48Q40.04-0.28 39.90-0.14Q39.76 0 39.56 0L39.56 0L35.88 0Q35.68 0 35.54-0.14Q35.40-0.28 35.40-0.48L35.40-0.48L35.40-27.52Q35.40-27.72 35.54-27.86Q35.68-28 35.88-28L35.88-28L48.84-28Q49.04-28 49.18-27.86Q49.32-27.72 49.32-27.52L49.32-27.52L49.32-24.48Z M61.16 0.32Q57.72 0.32 55.62-1.76Q53.52-3.84 53.52-7.28L53.52-7.28L53.52-20.72Q53.52-24.16 55.62-26.24Q57.72-28.32 61.16-28.32L61.16-28.32Q64.60-28.32 66.72-26.24Q68.84-24.16 68.84-20.72L68.84-20.72L68.84-7.28Q68.84-3.84 66.72-1.76Q64.60 0.32 61.16 0.32L61.16 0.32ZM61.16-3.68Q62.52-3.68 63.36-4.62Q64.20-5.56 64.20-7.08L64.20-7.08L64.20-20.92Q64.20-22.44 63.36-23.38Q62.52-24.32 61.16-24.32L61.16-24.32Q59.80-24.32 58.98-23.38Q58.16-22.44 58.16-20.92L58.16-20.92L58.16-7.08Q58.16-5.56 58.98-4.62Q59.80-3.68 61.16-3.68L61.16-3.68Z M85.76 0Q85.36 0 85.24-0.40L85.24-0.40L81.80-11.92Q81.72-12.08 81.60-12.08L81.60-12.08L79.52-12.08Q79.32-12.08 79.32-11.88L79.32-11.88L79.32-0.48Q79.32-0.28 79.18-0.14Q79.04 0 78.84 0L78.84 0L75.16 0Q74.96 0 74.82-0.14Q74.68-0.28 74.68-0.48L74.68-0.48L74.68-27.56Q74.68-27.76 74.82-27.90Q74.96-28.04 75.16-28.04L75.16-28.04L82.68-28.04Q84.80-28.04 86.42-27.02Q88.04-26 88.94-24.14Q89.84-22.28 89.84-19.88L89.84-19.88Q89.84-17.40 88.88-15.58Q87.92-13.76 86.20-12.84L86.20-12.84Q86.04-12.80 86.08-12.60L86.08-12.60L90.00-0.56Q90.04-0.48 90.04-0.36L90.04-0.36Q90.04 0 89.60 0L89.60 0L85.76 0ZM79.52-24.04Q79.32-24.04 79.32-23.84L79.32-23.84L79.32-15.88Q79.32-15.68 79.52-15.68L79.52-15.68L81.96-15.68Q83.40-15.68 84.30-16.80Q85.20-17.92 85.20-19.80L85.20-19.80Q85.20-21.76 84.30-22.90Q83.40-24.04 81.96-24.04L81.96-24.04L79.52-24.04Z M95.52 0Q95.32 0 95.18-0.14Q95.04-0.28 95.04-0.48L95.04-0.48L95.04-27.52Q95.04-27.72 95.18-27.86Q95.32-28 95.52-28L95.52-28L99.16-28Q99.56-28 99.72-27.64L99.72-27.64L103.56-19Q103.68-18.76 103.80-19L103.80-19L107.60-27.64Q107.76-28 108.16-28L108.16-28L111.84-28Q112.04-28 112.18-27.86Q112.32-27.72 112.32-27.52L112.32-27.52L112.32-0.48Q112.32-0.28 112.18-0.14Q112.04 0 111.84 0L111.84 0L108.16 0Q107.96 0 107.82-0.14Q107.68-0.28 107.68-0.48L107.68-0.48L107.68-17.92Q107.68-18.08 107.60-18.08Q107.52-18.08 107.44-17.96L107.44-17.96L104.00-10.96Q103.84-10.60 103.68-10.60L103.68-10.60Q103.56-10.60 103.36-10.96L103.36-10.96L99.92-18.04Q99.84-18.16 99.76-18.14Q99.68-18.12 99.68-17.96L99.68-17.96L99.68-0.48Q99.68-0.28 99.54-0.14Q99.40 0 99.20 0L99.20 0L95.52 0Z M130.84 0Q130.36 0 130.32-0.44L130.32-0.44L129.56-4.64Q129.56-4.84 129.32-4.84L129.32-4.84L123.52-4.84Q123.28-4.84 123.28-4.68L123.28-4.68L122.48-0.44Q122.44 0 121.96 0L121.96 0L118.28 0Q117.76 0 117.88-0.52L117.88-0.52L123.76-27.56Q123.84-28 124.28-28L124.28-28L128.56-28Q129-28 129.08-27.56L129.08-27.56L135-0.52L135-0.36Q135 0 134.56 0L134.56 0L130.84 0ZM124.08-8.68Q124.04-8.48 124.28-8.48L124.28-8.48L128.64-8.48Q128.88-8.48 128.84-8.68L128.84-8.68L126.64-20.76Q126.60-20.88 126.52-20.88Q126.44-20.88 126.40-20.76L126.40-20.76L124.08-8.68ZM124.36-30.56Q124.08-30.56 123.96-30.72Q123.84-30.88 124-31.12L124-31.12L126.36-35.24Q126.52-35.56 126.96-35.56L126.96-35.56L130.32-35.56Q130.64-35.56 130.72-35.38Q130.80-35.20 130.64-34.96L130.64-34.96L127.68-30.84Q127.48-30.56 127.12-30.56L127.12-30.56L124.36-30.56Z M152.28-28Q152.48-28 152.62-27.86Q152.76-27.72 152.76-27.52L152.76-27.52L152.76-24.48Q152.76-24.28 152.62-24.14Q152.48-24 152.28-24L152.28-24L147.20-24Q147-24 147-23.80L147-23.80L147-0.48Q147-0.28 146.86-0.14Q146.72 0 146.52 0L146.52 0L142.84 0Q142.64 0 142.50-0.14Q142.36-0.28 142.36-0.48L142.36-0.48L142.36-23.80Q142.36-24 142.16-24L142.16-24L137.36-24Q137.16-24 137.02-24.14Q136.88-24.28 136.88-24.48L136.88-24.48L136.88-27.52Q136.88-27.72 137.02-27.86Q137.16-28 137.36-28L137.36-28L152.28-28Z M158.48 0Q158.28 0 158.14-0.14Q158-0.28 158-0.48L158-0.48L158-27.52Q158-27.72 158.14-27.86Q158.28-28 158.48-28L158.48-28L162.16-28Q162.36-28 162.50-27.86Q162.64-27.72 162.64-27.52L162.64-27.52L162.64-0.48Q162.64-0.28 162.50-0.14Q162.36 0 162.16 0L162.16 0L158.48 0Z M176 0.32Q172.60 0.32 170.54-1.74Q168.48-3.80 168.48-7.20L168.48-7.20L168.48-20.84Q168.48-24.28 170.54-26.30Q172.60-28.32 176-28.32L176-28.32Q179.44-28.32 181.52-26.30Q183.60-24.28 183.60-20.84L183.60-20.84L183.60-20.36Q183.60-20.16 183.46-20Q183.32-19.84 183.12-19.84L183.12-19.84L179.40-19.68Q178.92-19.68 178.92-20.16L178.92-20.16L178.92-21.16Q178.92-22.56 178.12-23.44Q177.32-24.32 176-24.32L176-24.32Q174.72-24.32 173.92-23.44Q173.12-22.56 173.12-21.16L173.12-21.16L173.12-6.84Q173.12-5.44 173.92-4.56Q174.72-3.68 176-3.68L176-3.68Q177.32-3.68 178.12-4.56Q178.92-5.44 178.92-6.84L178.92-6.84L178.92-7.84Q178.92-8.04 179.06-8.18Q179.20-8.32 179.40-8.32L179.40-8.32L183.12-8.16Q183.32-8.16 183.46-8.02Q183.60-7.88 183.60-7.68L183.60-7.68L183.60-7.20Q183.60-3.80 181.52-1.74Q179.44 0.32 176 0.32L176 0.32Z M200.84 0Q200.36 0 200.32-0.44L200.32-0.44L199.56-4.64Q199.56-4.84 199.32-4.84L199.32-4.84L193.52-4.84Q193.28-4.84 193.28-4.68L193.28-4.68L192.48-0.44Q192.44 0 191.96 0L191.96 0L188.28 0Q187.76 0 187.88-0.52L187.88-0.52L193.76-27.56Q193.84-28 194.28-28L194.28-28L198.56-28Q199.00-28 199.08-27.56L199.08-27.56L205.00-0.52L205.00-0.36Q205.00 0 204.56 0L204.56 0L200.84 0ZM194.08-8.68Q194.04-8.48 194.28-8.48L194.28-8.48L198.64-8.48Q198.88-8.48 198.84-8.68L198.84-8.68L196.64-20.76Q196.60-20.88 196.52-20.88Q196.44-20.88 196.40-20.76L196.40-20.76L194.08-8.68Z"/></g>
</svg>
</g></svg></svg>